<svg xmlns="http://www.w3.org/2000/svg" xmlns:xlink="http://www.w3.org/1999/xlink" width="500" zoomAndPan="magnify" viewBox="0 0 375 374.999991" height="500" preserveAspectRatio="xMidYMid meet" version="1.0"><defs><g/></defs><rect x="-37.5" width="450" fill="#ffffff" y="-37.499999" height="449.999989" fill-opacity="1"/><rect x="-37.5" width="450" fill="#000000" y="-37.499999" height="449.999989" fill-opacity="1"/><g fill="#ffffff" fill-opacity="1"><g transform="translate(157.85078, 267.133319)"><g><path d="M 150.546875 27 C 146.097656 28.164062 142.148438 28.75 138.703125 28.75 C 135.265625 28.75 132.222656 28.535156 129.578125 28.109375 C 126.929688 27.679688 124.097656 26.859375 121.078125 25.640625 C 118.066406 24.421875 115.234375 23.019531 112.578125 21.4375 C 109.929688 19.851562 107.285156 17.894531 104.640625 15.5625 C 99.773438 11.644531 95.359375 7.410156 91.390625 2.859375 C 87.421875 -1.691406 79.769531 -10.238281 68.4375 -22.78125 C 57.113281 -35.332031 49.597656 -43.671875 45.890625 -47.796875 C 42.179688 -51.921875 39.320312 -54.09375 37.3125 -54.3125 L 37.3125 -55.890625 C 43.457031 -55.890625 47.5625 -56.019531 49.625 -56.28125 C 51.6875 -56.550781 53.878906 -57.03125 56.203125 -57.71875 C 58.535156 -58.40625 60.5 -59.332031 62.09375 -60.5 C 68.332031 -64.519531 71.453125 -71.191406 71.453125 -80.515625 C 71.453125 -88.242188 69.734375 -94.4375 66.296875 -99.09375 C 62.859375 -103.75 58.015625 -106.128906 51.765625 -106.234375 L 32.078125 -106.234375 L 32.078125 -11.59375 C 32.078125 -8.945312 33.054688 -6.617188 35.015625 -4.609375 C 36.972656 -2.597656 39.378906 -1.59375 42.234375 -1.59375 L 44.140625 -1.59375 L 44.296875 0 L 9.53125 0 L 9.53125 -1.59375 L 11.59375 -1.59375 C 14.238281 -1.59375 16.566406 -2.539062 18.578125 -4.4375 C 20.585938 -6.34375 21.644531 -8.675781 21.75 -11.4375 L 21.75 -99.5625 C 21.644531 -102.3125 20.613281 -104.664062 18.65625 -106.625 C 16.695312 -108.582031 14.34375 -109.5625 11.59375 -109.5625 L 9.53125 -109.5625 L 9.53125 -111.15625 L 52.40625 -111.15625 C 61.71875 -111.15625 69.207031 -108.535156 74.875 -103.296875 C 80.539062 -98.054688 83.375 -91.117188 83.375 -82.484375 C 83.375 -73.859375 80.78125 -66.445312 75.59375 -60.25 C 70.40625 -54.0625 64.050781 -50.96875 56.53125 -50.96875 C 56.53125 -50.96875 56.476562 -50.96875 56.375 -50.96875 C 59.96875 -47.15625 64.039062 -42.710938 68.59375 -37.640625 C 86.914062 -17.410156 98.671875 -4.707031 103.859375 0.46875 C 109.046875 5.65625 113.625 9.914062 117.59375 13.25 C 121.5625 16.59375 125.082031 19.054688 128.15625 20.640625 C 134.394531 24.023438 140.585938 25.71875 146.734375 25.71875 C 148.003906 25.71875 149.273438 25.613281 150.546875 25.40625 Z M 150.546875 27 "/></g></g></g><g fill="#ffffff" fill-opacity="1"><g transform="translate(104.593153, 235.88332)"><g><path d="M -6.359375 -120.203125 C -5.609375 -120.203125 -4.28125 -120.203125 -2.375 -120.203125 C -0.476562 -120.203125 2.109375 -119.882812 5.390625 -119.25 C 8.679688 -118.613281 11.726562 -117.6875 14.53125 -116.46875 C 17.332031 -115.257812 20.082031 -113.515625 22.78125 -111.234375 C 25.488281 -108.960938 27.789062 -106.847656 29.6875 -104.890625 C 31.59375 -102.929688 33.523438 -100.363281 35.484375 -97.1875 C 37.441406 -94.007812 39.03125 -91.304688 40.25 -89.078125 C 41.46875 -86.859375 42.816406 -83.945312 44.296875 -80.34375 C 46.203125 -75.789062 47.738281 -71.847656 48.90625 -68.515625 C 50.070312 -65.179688 50.707031 -63.351562 50.8125 -63.03125 C 50.914062 -62.71875 51.078125 -62.351562 51.296875 -61.9375 C 51.609375 -61.082031 51.867188 -60.335938 52.078125 -59.703125 C 52.398438 -60.441406 53.144531 -62.398438 54.3125 -65.578125 C 55.476562 -68.753906 56.5625 -71.613281 57.5625 -74.15625 C 58.570312 -76.695312 60.132812 -80.296875 62.25 -84.953125 C 64.363281 -89.609375 66.296875 -93.285156 68.046875 -95.984375 C 69.796875 -98.691406 72.046875 -101.789062 74.796875 -105.28125 C 77.546875 -108.769531 80.296875 -111.46875 83.046875 -113.375 C 89.828125 -117.925781 97.023438 -120.203125 104.640625 -120.203125 L 104.640625 -118.625 C 98.710938 -118.625 92.648438 -115.5 86.453125 -109.25 C 80.265625 -103.007812 74.972656 -95.46875 70.578125 -86.625 C 66.191406 -77.78125 62.59375 -68.617188 59.78125 -59.140625 C 56.976562 -49.671875 55.578125 -41.601562 55.578125 -34.9375 L 55.578125 -11.59375 C 55.578125 -7.78125 57.21875 -4.921875 60.5 -3.015625 C 62.09375 -2.066406 63.835938 -1.59375 65.734375 -1.59375 L 67.640625 -1.59375 L 67.640625 0 L 33.03125 0 L 33.03125 -1.59375 L 35.09375 -1.59375 C 37.738281 -1.59375 40.066406 -2.539062 42.078125 -4.4375 C 44.085938 -6.34375 45.144531 -8.675781 45.25 -11.4375 L 45.25 -35.09375 C 45.25 -42.1875 43.765625 -50.492188 40.796875 -60.015625 C 37.835938 -69.546875 34.03125 -78.675781 29.375 -87.40625 C 24.71875 -96.144531 19.160156 -103.53125 12.703125 -109.5625 C 6.242188 -115.601562 -0.109375 -118.625 -6.359375 -118.625 Z M -6.359375 -120.203125 "/></g></g></g></svg>